<?xml version="1.0" encoding="UTF-8" standalone="no"?>
<!DOCTYPE svg PUBLIC "-//W3C//DTD SVG 1.1//EN"
 "http://www.w3.org/Graphics/SVG/1.1/DTD/svg11.dtd">
<!-- Generated by graphviz version 2.47.3 (20210619.1520)
 -->
<!-- Title: g Pages: 1 -->
<svg width="641pt" height="315pt"
 viewBox="0.00 0.00 641.00 315.00" xmlns="http://www.w3.org/2000/svg" xmlns:xlink="http://www.w3.org/1999/xlink">
<g id="graph0" class="graph" transform="scale(1 1) rotate(0) translate(4 311)">
<title>g</title>
<polygon fill="white" stroke="transparent" points="-4,4 -4,-311 637,-311 637,4 -4,4"/>
<text text-anchor="start" x="273.5" y="-292.8" font-family="Times,serif" text-decoration="underline" font-size="14.00">Error Handling</text>
<!-- T -->
<g id="0" class="node">
<title>T</title>
<text text-anchor="middle" x="10" y="-184.3" font-family="Times,serif" font-size="9.00">&lt; T &gt;</text>
</g>
<!-- Option -->
<g id="2" class="node">
<title>Option</title>
<path fill="none" stroke="black" d="M98,-203.5C98,-203.5 178,-203.5 178,-203.5 184,-203.5 190,-209.5 190,-215.5 190,-215.5 190,-271.5 190,-271.5 190,-277.5 184,-283.5 178,-283.5 178,-283.5 98,-283.5 98,-283.5 92,-283.5 86,-277.5 86,-271.5 86,-271.5 86,-215.5 86,-215.5 86,-209.5 92,-203.5 98,-203.5"/>
<text text-anchor="middle" x="138" y="-269.1" font-family="Times,serif" font-size="13.00">&lt;&lt;Enum&gt;&gt;</text>
<text text-anchor="middle" x="138" y="-255.1" font-family="Times,serif" font-size="13.00">Option</text>
<polyline fill="none" stroke="black" points="86,-247.5 190,-247.5 "/>
<text text-anchor="start" x="94" y="-233.1" font-family="Times,serif" font-size="13.00">+ Variant: Some </text>
<polyline fill="none" stroke="black" points="86,-225.5 190,-225.5 "/>
<text text-anchor="start" x="94" y="-211.1" font-family="Times,serif" font-size="13.00">+ Variant: None </text>
</g>
<!-- T&#45;&gt;Option -->
<g id="edge1" class="edge">
<title>T&#45;&gt;Option:f0</title>
<path fill="none" stroke="black" d="M21.57,-199.5C34.9,-214.31 59.31,-236.5 86,-236.5"/>
<polygon fill="black" stroke="black" points="24.22,-197.2 15.07,-191.85 18.88,-201.74 24.22,-197.2"/>
<text text-anchor="middle" x="53" y="-244.1" font-family="Times,serif" font-size="8.00">Some(T)</text>
<text text-anchor="middle" x="53" y="-235.1" font-family="Times,serif" font-size="8.00">unwrap()</text>
</g>
<!-- Result -->
<g id="1" class="node">
<title>Result</title>
<path fill="none" stroke="black" d="M104.5,-104.5C104.5,-104.5 171.5,-104.5 171.5,-104.5 177.5,-104.5 183.5,-110.5 183.5,-116.5 183.5,-116.5 183.5,-172.5 183.5,-172.5 183.5,-178.5 177.5,-184.5 171.5,-184.5 171.5,-184.5 104.5,-184.5 104.5,-184.5 98.5,-184.5 92.5,-178.5 92.5,-172.5 92.5,-172.5 92.5,-116.5 92.5,-116.5 92.5,-110.5 98.5,-104.5 104.5,-104.5"/>
<text text-anchor="middle" x="138" y="-170.1" font-family="Times,serif" font-size="13.00">&lt;&lt;Enum&gt;&gt;</text>
<text text-anchor="middle" x="138" y="-156.1" font-family="Times,serif" font-size="13.00">Result</text>
<polyline fill="none" stroke="black" points="92.5,-148.5 183.5,-148.5 "/>
<text text-anchor="start" x="100.5" y="-134.1" font-family="Times,serif" font-size="13.00">+ Variant: Ok </text>
<polyline fill="none" stroke="black" points="92.5,-126.5 183.5,-126.5 "/>
<text text-anchor="start" x="100.5" y="-112.1" font-family="Times,serif" font-size="13.00">+ Variant: Err </text>
</g>
<!-- Result&#45;&gt;T -->
<g id="edge2" class="edge">
<title>Result:f0&#45;&gt;T</title>
<path fill="none" stroke="black" d="M91,-137.5C63.23,-137.5 36.96,-159.24 22.51,-173.76"/>
<polygon fill="black" stroke="black" points="19.76,-171.58 15.45,-181.26 24.85,-176.38 19.76,-171.58"/>
<text text-anchor="middle" x="53" y="-170.1" font-family="Times,serif" font-size="8.00">Ok(T)</text>
<text text-anchor="middle" x="53" y="-161.1" font-family="Times,serif" font-size="8.00">unwrap()</text>
</g>
<!-- Panic -->
<g id="3" class="node">
<title>Panic</title>
<path fill="none" stroke="black" d="M268,-27.5C268,-27.5 416,-27.5 416,-27.5 422,-27.5 428,-33.5 428,-39.5 428,-39.5 428,-161.5 428,-161.5 428,-167.5 422,-173.5 416,-173.5 416,-173.5 268,-173.5 268,-173.5 262,-173.5 256,-167.5 256,-161.5 256,-161.5 256,-39.5 256,-39.5 256,-33.5 262,-27.5 268,-27.5"/>
<text text-anchor="middle" x="342" y="-159.1" font-family="Times,serif" font-size="13.00">&lt;&lt;Macro&gt;&gt;</text>
<text text-anchor="middle" x="342" y="-145.1" font-family="Times,serif" font-size="13.00">Panic</text>
<polyline fill="none" stroke="black" points="256,-137.5 428,-137.5 "/>
<text text-anchor="start" x="264" y="-123.1" font-family="Times,serif" font-size="13.00">+ Attribute: #[panic_handler] </text>
<polyline fill="none" stroke="black" points="256,-115.5 428,-115.5 "/>
<text text-anchor="start" x="264" y="-101.1" font-family="Times,serif" font-size="13.00">+ Function: take_hook </text>
<polyline fill="none" stroke="black" points="256,-93.5 428,-93.5 "/>
<text text-anchor="start" x="264" y="-79.1" font-family="Times,serif" font-size="13.00">+ Function: catch_unwind </text>
<polyline fill="none" stroke="black" points="256,-71.5 428,-71.5 "/>
<text text-anchor="start" x="264" y="-57.1" font-family="Times,serif" font-size="13.00">+ Function: resume_unwind </text>
<polyline fill="none" stroke="black" points="256,-49.5 428,-49.5 "/>
<text text-anchor="start" x="264" y="-35.1" font-family="Times,serif" font-size="13.00">+ Function: panic_any </text>
</g>
<!-- Result&#45;&gt;Panic -->
<g id="edge3" class="edge">
<title>Result:f1&#45;&gt;Panic:f0</title>
<path fill="none" stroke="black" d="M185,-115.5C217.54,-115.5 219.68,-147.79 246.05,-154.35"/>
<polygon fill="black" stroke="black" points="245.66,-157.82 256,-155.5 246.47,-150.87 245.66,-157.82"/>
<text text-anchor="middle" x="223" y="-162.1" font-family="Times,serif" font-size="8.00">Err(E)</text>
<text text-anchor="middle" x="223" y="-153.1" font-family="Times,serif" font-size="8.00">unwrap()</text>
</g>
<!-- Option&#45;&gt;Panic -->
<g id="edge4" class="edge">
<title>Option:f1&#45;&gt;Panic:n</title>
<path fill="none" stroke="black" d="M190,-214.5C256.17,-214.5 333.37,-241.29 341.33,-184.74"/>
<polygon fill="black" stroke="black" points="344.84,-184.71 342,-174.5 337.85,-184.25 344.84,-184.71"/>
<text text-anchor="middle" x="223" y="-228.1" font-family="Times,serif" font-size="8.00">None</text>
<text text-anchor="middle" x="223" y="-219.1" font-family="Times,serif" font-size="8.00">unwrap()</text>
</g>
<!-- PanicInfo -->
<g id="4" class="node">
<title>PanicInfo</title>
<path fill="none" stroke="black" d="M518,-0.5C518,-0.5 621,-0.5 621,-0.5 627,-0.5 633,-6.5 633,-12.5 633,-12.5 633,-90.5 633,-90.5 633,-96.5 627,-102.5 621,-102.5 621,-102.5 518,-102.5 518,-102.5 512,-102.5 506,-96.5 506,-90.5 506,-90.5 506,-12.5 506,-12.5 506,-6.5 512,-0.5 518,-0.5"/>
<text text-anchor="middle" x="569.5" y="-88.1" font-family="Times,serif" font-size="13.00">&lt;&lt;Struct&gt;&gt;</text>
<text text-anchor="middle" x="569.5" y="-74.1" font-family="Times,serif" font-size="13.00">PanicInfo</text>
<polyline fill="none" stroke="black" points="506,-66.5 633,-66.5 "/>
<text text-anchor="start" x="514" y="-52.1" font-family="Times,serif" font-size="13.00">+ Function: location </text>
<polyline fill="none" stroke="black" points="506,-44.5 633,-44.5 "/>
<text text-anchor="start" x="514" y="-30.1" font-family="Times,serif" font-size="13.00">+ Function: message </text>
<polyline fill="none" stroke="black" points="506,-22.5 633,-22.5 "/>
<text text-anchor="start" x="514" y="-8.1" font-family="Times,serif" font-size="13.00">+ Function: payload </text>
</g>
<!-- Panic&#45;&gt;PanicInfo -->
<g id="edge5" class="edge">
<title>Panic:f2&#45;&gt;PanicInfo:n</title>
<path fill="none" stroke="black" d="M428,-104.5C487.08,-104.5 560.04,-159.12 568.66,-113.59"/>
<polygon fill="black" stroke="black" points="572.15,-113.76 569.5,-103.5 565.18,-113.17 572.15,-113.76"/>
<text text-anchor="middle" x="467" y="-118.1" font-family="Times,serif" font-size="8.00">set_hook</text>
</g>
<!-- Panic&#45;&gt;PanicInfo -->
<g id="edge6" class="edge">
<title>Panic:f3&#45;&gt;PanicInfo:f0</title>
<path fill="none" stroke="black" d="M428,-82.5C459.02,-82.5 469.21,-84.1 495.84,-84.44"/>
<polygon fill="black" stroke="black" points="495.98,-87.94 506,-84.5 496.02,-80.94 495.98,-87.94"/>
<text text-anchor="middle" x="467" y="-87.1" font-family="Times,serif" font-size="8.00">&lt;&lt;include&gt;&gt;</text>
</g>
</g>
</svg>
